<svg xmlns="http://www.w3.org/2000/svg" viewBox="0 0 360 360"><defs><style>.cls-1{fill:#d1d3d4;}.cls-2{fill:#58595b;}.cls-3{fill:#bcbec0;}.cls-4{fill:none;stroke:#58595b;stroke-miterlimit:10;}</style></defs><title>logo</title><g id="Layer_2" data-name="Layer 2"><g id="Layer_1-2" data-name="Layer 1"><circle class="cls-1" cx="180" cy="180" r="180"/><rect class="cls-2" x="172.91" y="38.75" width="17.16" height="189.02" rx="5.59" transform="translate(-43.64 137.2) rotate(-37.29)"/><ellipse class="cls-3" cx="130.48" cy="65.2" rx="3.43" ry="4.38" transform="translate(-12.83 92.38) rotate(-37.29)"/><path class="cls-2" d="M220.55,207.2h58.28a29,29,0,0,1,29,29v10.87a27.56,27.56,0,0,1-27.56,27.56H223.39a8.83,8.83,0,0,1-8.83-8.83V213.18a6,6,0,0,1,6-6Z" transform="translate(217.55 593.55) rotate(-125.63)"/><rect class="cls-1" x="245.46" y="218.12" width="4.42" height="73.04" rx="2.21" transform="translate(-101.98 191.96) rotate(-35.63)"/><rect class="cls-1" x="256.98" y="209.87" width="4.42" height="73.04" rx="2.21" transform="translate(-95.02 197.13) rotate(-35.63)"/><rect class="cls-1" x="268.06" y="201.92" width="4.42" height="73.04" rx="2.21" transform="matrix(0.81, -0.58, 0.58, 0.81, -88.31, 202.1)"/><rect class="cls-1" x="279.17" y="195.3" width="4.42" height="73.04" rx="2.21" transform="matrix(0.81, -0.58, 0.58, 0.81, -82.37, 207.33)"/><rect class="cls-2" x="193.92" y="44.55" width="17.16" height="116.01" rx="5.59" transform="translate(106.26 -103.03) rotate(38.06)"/><ellipse class="cls-3" cx="232.94" cy="64.72" rx="4.38" ry="3.43" transform="translate(38.39 208.25) rotate(-51.94)"/><path class="cls-4" d="M175.35,150.51S140,307.17,87.29,289.8s-32.92-65.2,75.12-149.17Z"/><path class="cls-4" d="M165.12,142.7S25,255.82,74.64,282.64,172,147.91,172,147.91Z"/><path class="cls-4" d="M165.76,145.34S53.14,251.16,70.52,281.53s99.2-133.9,99.2-133.9Z"/><path class="cls-4" d="M166,147.63S67.52,262,71.23,282.61s97.25-135.7,97.25-135.7Z"/></g></g></svg>